<?xml version="1.0" encoding="UTF-8" standalone="no"?>
<svg
   xmlns:dc="http://purl.org/dc/elements/1.1/"
   xmlns:cc="http://creativecommons.org/ns#"
   xmlns:rdf="http://www.w3.org/1999/02/22-rdf-syntax-ns#"
   xmlns:svg="http://www.w3.org/2000/svg"
   xmlns="http://www.w3.org/2000/svg"
   xmlns:sodipodi="http://sodipodi.sourceforge.net/DTD/sodipodi-0.dtd"
   xmlns:inkscape="http://www.inkscape.org/namespaces/inkscape"
   viewBox="0 0 303.55014 229.47678"
   version="1.1"
   id="svg4"
   sodipodi:docname="left-right-bold-arrow-icon.svg"
   width="303.55014"
   height="229.47678"
   style="clip-rule:evenodd;fill-rule:evenodd;image-rendering:optimizeQuality;shape-rendering:geometricPrecision;text-rendering:geometricPrecision"
   inkscape:version="0.92.3 (2405546, 2018-03-11)">
  <metadata
     id="metadata10">
    <rdf:RDF>
      <cc:Work
         rdf:about="">
        <dc:format>image/svg+xml</dc:format>
        <dc:type
           rdf:resource="http://purl.org/dc/dcmitype/StillImage" />
        <dc:title></dc:title>
      </cc:Work>
    </rdf:RDF>
  </metadata>
  <defs
     id="defs8" />
  <sodipodi:namedview
     pagecolor="#ffffff"
     bordercolor="#666666"
     borderopacity="1"
     objecttolerance="10"
     gridtolerance="10"
     guidetolerance="10"
     inkscape:pageopacity="0"
     inkscape:pageshadow="2"
     inkscape:window-width="1496"
     inkscape:window-height="703"
     id="namedview6"
     showgrid="false"
     fit-margin-top="0"
     fit-margin-left="0"
     fit-margin-right="0"
     fit-margin-bottom="0"
     inkscape:zoom="0.60358056"
     inkscape:cx="-150.43517"
     inkscape:cy="33.97678"
     inkscape:window-x="67"
     inkscape:window-y="30"
     inkscape:window-maximized="0"
     inkscape:current-layer="svg4" />
  <path
     d="M 7.77,64.01 H 164.51 V 7.78 c 0,-4.3 3.48,-7.78 7.77,-7.78 2.17,0 4.12,0.88 5.53,2.3 l 123.06,106.59 c 3.24,2.8 3.59,7.7 0.79,10.93 -0.26,0.31 -0.55,0.59 -0.85,0.85 L 177.36,227.59 c -3.24,2.8 -8.14,2.44 -10.94,-0.79 -1.22109,-1.4066 -1.89236,-3.20732 -1.89,-5.07 l -0.02,-56.24 H 7.77 C 3.48,165.49 0,162.01 0,157.72 V 71.78 c 0,-4.29 3.48,-7.77 7.77,-7.77 z"
     id="path2"
     inkscape:connector-curvature="0"
     style="fill-rule:nonzero;fill:#ff2a2a"
     sodipodi:nodetypes="scssccccccccssss" />
</svg>
